<svg fill="#845ec2" xmlns="http://www.w3.org/2000/svg"  viewBox="0 0 100 100" width="200px" height="200px"><path d="M 24.123047 15.007812 C 23.669047 14.952813 23.226406 15.218297 23.066406 15.654297 L 12.785156 43.621094 C 12.691156 43.875094 12.705266 44.156391 12.822266 44.400391 C 12.938266 44.644391 13.15025 44.830016 13.40625 44.916016 L 19.185547 46.855469 L 13.617188 57.199219 C 13.388187 57.627219 13.498859 58.159937 13.880859 58.460938 L 23.792969 66.263672 L 23.042969 68.785156 L 18.509766 84.701172 C 18.406766 85.061172 18.515062 85.451031 18.789062 85.707031 C 18.977062 85.883031 19.223656 85.976563 19.472656 85.976562 C 19.586656 85.976562 19.702453 85.955062 19.814453 85.914062 L 40.933594 78.244141 L 55.40625 87.585938 C 55.57025 87.691938 55.760219 87.744141 55.949219 87.744141 C 56.075219 87.744141 56.202266 87.722828 56.322266 87.673828 L 83.513672 76.730469 C 83.881672 76.581469 84.127625 76.229984 84.140625 75.833984 L 85.466797 34.933594 C 85.467515 34.911564 85.457728 34.892814 85.457031 34.871094 C 85.456475 34.849943 85.464789 34.829787 85.462891 34.808594 C 85.458639 34.76302 85.434168 34.723766 85.423828 34.679688 C 85.408162 34.612546 85.393739 34.547632 85.365234 34.486328 C 85.339783 34.431356 85.304515 34.385471 85.269531 34.335938 C 85.228814 34.278143 85.18855 34.223724 85.136719 34.175781 C 85.12052 34.1608 85.112955 34.13895 85.095703 34.125 L 63.099609 16.328125 C 62.675609 15.983125 62.054125 16.044844 61.703125 16.464844 L 53.816406 25.927734 L 46.865234 17.994141 C 46.703234 17.809141 46.477422 17.689156 46.232422 17.660156 L 24.123047 15.007812 z M 24.669922 17.087891 L 45.611328 19.599609 L 52.970703 28 L 27.802734 28 C 26.806734 28 26 28.806734 26 29.802734 L 26 47.033203 L 15.017578 43.347656 L 24.669922 17.087891 z M 62.607422 18.503906 L 83.044922 35.037109 L 70 50.421875 L 70 29.802734 C 70 28.806734 69.193266 28 68.197266 28 L 55.630859 28 L 55.150391 27.451172 L 62.607422 18.503906 z M 26.601562 20.025391 C 26.343563 20.004391 26.080687 20.197656 26.054688 20.472656 C 26.025688 20.747656 26.226953 20.991531 26.501953 21.019531 L 31.720703 21.546875 C 31.737703 21.547875 31.753484 21.548828 31.771484 21.548828 C 32.024484 21.548828 32.242578 21.356609 32.267578 21.099609 C 32.296578 20.824609 32.095313 20.578781 31.820312 20.550781 L 26.601562 20.025391 z M 34.986328 20.898438 C 34.717328 20.864438 34.4645 21.06875 34.4375 21.34375 C 34.4075 21.61875 34.608812 21.864578 34.882812 21.892578 L 43.925781 22.837891 C 43.943781 22.839891 43.960516 22.839844 43.978516 22.839844 C 44.230516 22.839844 44.448609 22.649578 44.474609 22.392578 C 44.504609 22.117578 44.303297 21.87175 44.029297 21.84375 L 34.986328 20.898438 z M 28 30 L 68 30 L 68 70 L 28 70 L 28 30 z M 33.0625 34 L 33.0625 37.96875 L 36.03125 37.96875 L 36.03125 48.03125 L 33.0625 48.03125 L 33.0625 51.814453 L 43 51.814453 L 43 48.03125 L 39.917969 48.03125 L 39.917969 37.96875 L 42.96875 37.96875 L 42.96875 34 L 33.0625 34 z M 54.027344 34 L 54.027344 45.472656 C 54.027344 46.577656 53.517344 48.498047 51.527344 48.498047 C 49.980344 48.498047 48.726391 47.178688 48.275391 46.679688 L 45.779297 49.519531 C 46.449297 50.315531 48.211344 52.257812 51.527344 52.257812 C 53.516344 52.257813 55.684281 51.284875 56.613281 50.046875 C 57.939281 48.277875 57.939453 46.506344 57.939453 45.402344 L 58 34 L 54.027344 34 z M 83.375 37.736328 L 82.162109 75.117188 L 56.056641 85.623047 L 43.294922 77.386719 L 48.111328 75.636719 C 48.314328 75.563719 48.489422 75.424188 48.607422 75.242188 L 50.71875 72 L 68.197266 72 C 69.193266 72 70 71.193266 70 70.197266 L 70 53.513672 L 83.375 37.736328 z M 21.109375 47.5 L 26 49.142578 L 26 58.904297 C 25.990797 58.928321 25.972295 58.945644 25.964844 58.970703 L 24.408203 64.201172 L 15.775391 57.408203 L 21.109375 47.5 z M 79.679688 53.244141 C 79.360688 53.255141 79.171156 53.451563 79.160156 53.726562 L 78.763672 64.640625 C 78.753672 64.917625 78.969141 65.147203 79.244141 65.158203 L 79.263672 65.158203 C 79.531672 65.158203 79.753672 64.946734 79.763672 64.677734 L 80.160156 53.763672 C 80.170156 53.486672 79.954688 53.255141 79.679688 53.244141 z M 32 64 L 32 67 L 48 67 L 48 64 L 32 64 z M 26 65.859375 L 26 70.197266 C 26 71.193266 26.806734 72 27.802734 72 L 48.332031 72 L 47.113281 73.871094 L 20.970703 83.367188 L 24.962891 69.34375 L 26 65.859375 z M 79.128906 68.373047 C 78.809906 68.373047 78.620375 68.578516 78.609375 68.853516 L 78.46875 72.742188 L 72.003906 75.367188 C 71.747906 75.470188 71.624516 75.761578 71.728516 76.017578 C 71.806516 76.212578 71.994406 76.330078 72.191406 76.330078 C 72.254406 76.330078 72.317906 76.317969 72.378906 76.292969 L 79.144531 73.548828 C 79.326531 73.475828 79.449031 73.299516 79.457031 73.103516 L 79.609375 68.892578 C 79.619375 68.615578 79.403906 68.384047 79.128906 68.373047 z"/></svg>